# xmcd
#
# Track frame offsets:
#	150
#	7303
#	28811
#	45157
#	61773
#	85532
#	114219
#	139353
#	158527
#	181051
#
# Disc length: 2555 seconds
#
# Revision: 1
# Processed by: cddbd v1.5.1PL0 Copyright (c) Steve Scherf et al.
# Submitted via: CDex 1.50Beta5
#
DISCID=6e09f90a
DTITLE=BLACKHEART - R3 extra
DYEAR=1900
DGENRE=Dnace
TTITLE0=R3extraのテーマ Part.XXX〜戦車Vsおやじ編〜
TTITLE1=TRANCE the CLIFFROCK
TTITLE2=日本ゾンビ化計画。
TTITLE3=カーチェイスとハードコア。
TTITLE4=カミカゼ・マタドール。
TTITLE5=Thunder Chapter J2
TTITLE6=やっぱりゼビウスが好き。
TTITLE7=Aer Conditioner 22
TTITLE8=EUROPHIA Recitaled-six years after remade-
TTITLE9=Faraway
EXTD=
EXTT0=
EXTT1=
EXTT2=
EXTT3=
EXTT4=
EXTT5=
EXTT6=
EXTT7=
EXTT8=
EXTT9=
PLAYORDER=
